<mxfile host="app.diagrams.net" modified="2023-07-17T07:18:30.042Z" agent="Mozilla/5.0 (Windows NT 10.0; Win64; x64) AppleWebKit/537.36 (KHTML, like Gecko) Chrome/113.0.0.0 Safari/537.36" version="21.6.1" etag="KftphyUz4LRb_LeNnFzU" type="github">
  <diagram name="第 1 页" id="lVZUufaZWZBxsOEtfdC8">
    <mxGraphModel>
      <root>
        <mxCell id="0" />
        <mxCell id="1" parent="0" />
      </root>
    </mxGraphModel>
  </diagram>
</mxfile>
